<svg width="253" height="64" viewBox="0 0 253 64" fill="none" xmlns="http://www.w3.org/2000/svg">
<path fill-rule="evenodd" clip-rule="evenodd" d="M252.751 40.8414C235.168 22.2902 225.179 16.5304 200.217 7.2807C167.184 -4.95872 125.905 1.36061 91.584 3.94305C124.969 2.25867 167.084 -1.10012 199.509 9.14871C224.375 17.0085 235.123 23.1358 252.751 40.8414Z" fill="#3470E3"/>
<path fill-rule="evenodd" clip-rule="evenodd" d="M42.1168 16.801C40.8575 13.1064 38.7057 13.1064 38.3384 13.1064H35.3473L24.7471 47.5188C24.7471 47.5188 25.0619 47.5718 25.4818 47.5718C26.7411 47.5718 29.2076 47.1493 30.2572 43.6657C30.572 42.716 31.1495 40.8159 31.8838 38.4933H44.5832C45.2653 40.8159 45.8951 42.3991 46.2625 43.5606C47.3646 46.9387 49.5162 47.5718 50.9327 47.5718C51.825 47.5718 52.2969 47.3078 52.2969 47.3078C52.2969 47.3078 43.481 20.7064 42.1168 16.801ZM32.9859 34.9045C34.9274 28.8349 37.1842 21.4983 38.1811 18.3313C38.9157 20.9178 41.487 28.4654 43.481 34.9045H32.9859ZM70.9049 43.2962C70.9049 46.8857 73.3713 47.5718 75.1032 47.5718V24.7969C75.1032 21.1376 72.6892 20.5483 70.9049 20.5483V32.3709H60.3571V24.7969C60.3571 21.1904 57.9438 20.5483 56.1069 20.5483V43.3491C56.1069 46.9387 58.5206 47.5718 60.3571 47.5718V35.8016H70.9049V43.2962ZM97.332 20.5483H82.5866C79.4905 20.5483 78.9655 22.5011 78.9655 23.6095C78.9655 24.0319 79.0704 24.2957 79.1757 24.5066H85.9976V43.2962C85.9976 46.9387 88.4116 47.2552 90.2481 47.5718V24.5066H94.9183C97.5422 24.5066 97.5949 21.6568 97.5949 20.8121L97.332 20.5483ZM110.43 20.5483C100.512 20.5483 99.935 29.9342 99.935 33.9017C99.935 39.4968 101.825 48.3108 111.48 48.3108C115.993 48.3108 120.243 45.5132 120.243 41.238C120.243 40.8159 120.191 40.3409 120.086 39.8655C120.086 39.8655 117.882 43.8771 111.165 43.8771C106.442 43.8771 104.396 39.4438 104.133 35.6435H120.033C120.139 34.746 120.191 33.796 120.191 32.8461C120.191 26.5739 117.83 20.5483 110.43 20.5483ZM104.29 31.8961C104.501 28.2276 105.602 24.5595 110.168 24.5595C115.153 24.5595 115.993 29.0282 116.045 31.8961H104.29ZM142.157 43.2962C142.157 46.8857 144.624 47.5718 146.356 47.5718V24.7969C146.356 21.1376 143.942 20.5483 142.157 20.5483V32.3709H131.61V24.7969C131.61 21.1904 129.196 20.5483 127.359 20.5483V43.3491C127.359 46.9387 129.773 47.5718 131.61 47.5718V35.8016H142.157V43.2962ZM200.574 20.5483C190.656 20.5483 190.079 29.9342 190.079 33.9017C190.079 39.4968 191.968 48.3108 201.624 48.3108C206.137 48.3108 210.387 45.5132 210.387 41.238C210.387 40.8159 210.335 40.3409 210.23 39.8655C210.23 39.8655 208.026 43.8771 201.309 43.8771C196.586 43.8771 194.54 39.4438 194.277 35.6435H210.177C210.283 34.746 210.335 33.796 210.335 32.8461C210.335 26.5739 207.973 20.5483 200.574 20.5483ZM194.434 31.8961C194.644 28.2276 195.746 24.5595 200.312 24.5595C205.297 24.5595 206.137 29.0282 206.189 31.8961H194.434ZM218.762 47.5718H235.555V51.8474H236.027C237.707 51.7944 239.648 51.6885 239.648 49.9469V45.3026C239.648 43.8246 238.231 43.455 236.762 43.4021V20.5483H219.655V42.3465C219.655 43.7716 219.235 44.7216 218.5 44.7216C216.611 44.7216 214.669 44.8801 214.669 46.6217V51.8474H215.142C216.821 51.7415 218.762 51.6885 218.762 49.8939V47.5718ZM232.774 24.4014V43.5076H223.538C223.59 43.0326 223.643 42.558 223.643 42.2936V24.4014H232.774ZM165.804 44.8801C165.804 44.8801 166.538 47.5718 168.533 47.5718H170.736L171.681 44.8801C172.521 42.558 173.36 40.0769 174.147 37.7548C175.879 32.9518 177.663 27.9374 179.552 22.7649V43.8771C179.762 47.5718 181.127 47.5718 183.698 47.5718V13.1064H183.331C181.389 13.1064 179.29 13.1589 178.135 15.323L168.742 41.977C168.428 41.1325 163.075 26.0903 160.136 17.6452C158.929 14.1092 157.932 13.1064 154.154 13.1064H153.787V47.5718C156.305 47.5718 157.722 47.5718 157.932 43.9301V22.9234L165.804 44.8801Z" fill="#3470E3"/>
<path fill-rule="evenodd" clip-rule="evenodd" d="M0 20.5215C17.2232 39.4104 27.1002 45.3633 51.8805 55.0958C84.6718 67.974 126.065 62.4571 160.429 60.5411C127.018 61.5772 84.8457 64.1181 52.6242 53.2417C27.9136 44.9008 17.2847 38.5659 0 20.5215Z" fill="#3470E3"/>
<path fill-rule="evenodd" clip-rule="evenodd" d="M240.695 17.0756V12.7764H242.514C242.97 12.7764 243.303 12.8155 243.509 12.8926C243.717 12.9697 243.882 13.1067 244.007 13.304C244.131 13.5017 244.194 13.7272 244.194 13.9813C244.194 14.3045 244.1 14.5706 243.912 14.7811C243.724 14.9911 243.443 15.1233 243.07 15.1783C243.256 15.2871 243.409 15.4073 243.529 15.5385C243.651 15.6694 243.814 15.9028 244.019 16.237L244.54 17.0756H243.508L242.89 16.1371C242.668 15.8037 242.515 15.5936 242.433 15.5064C242.351 15.4205 242.265 15.3602 242.173 15.3285C242.08 15.2963 241.936 15.28 241.736 15.28H241.561V17.0756H240.695ZM241.561 14.5957H242.2C242.614 14.5957 242.872 14.5776 242.975 14.5428C243.077 14.5076 243.159 14.4468 243.217 14.3605C243.275 14.2746 243.304 14.1663 243.304 14.0372C243.304 13.8923 243.266 13.7761 243.189 13.6862C243.112 13.5968 243.004 13.5409 242.865 13.518C242.794 13.5079 242.584 13.503 242.235 13.503H241.561V14.5957Z" fill="#3470E3"/>
<path d="M242.103 11.2227C244.136 11.2227 245.784 12.8799 245.784 14.9247C245.784 16.969 244.136 18.6262 242.103 18.6262C240.07 18.6262 238.423 16.969 238.423 14.9247C238.423 12.8799 240.07 11.2227 242.103 11.2227Z" stroke="white" stroke-width="0.5669"/>
</svg>
